<?xml version="1.0" encoding="utf-8"?>
<!-- Generator: Adobe Illustrator 28.3.0, SVG Export Plug-In . SVG Version: 6.00 Build 0)  -->
<svg version="1.1" id="katman_1" xmlns="http://www.w3.org/2000/svg" xmlns:xlink="http://www.w3.org/1999/xlink" x="0px" y="0px"
	 viewBox="0 0 1920 836" style="enable-background:new 0 0 1920 836;" xml:space="preserve">
<style type="text/css">
	.st0{fill:#FFFFFF;}
</style>
<g>
	<g>
		<polygon class="st0" points="854.65,418.21 712.67,560.18 632.18,560.18 774.15,418.21 630.22,274.29 710.72,274.29 		"/>
	</g>
	<g>
		<polygon class="st0" points="679.91,592.95 496.92,775.95 281.16,560.18 361.67,560.18 496.92,695.44 599.41,592.95 		"/>
	</g>
	<g>
		<polygon class="st0" points="677.94,241.51 597.44,241.51 496.92,140.99 363.63,274.29 283.12,274.29 315.89,241.51 496.92,60.49 
					"/>
	</g>
</g>
<g>
	<path class="st0" d="M210.28,459.12c0,15.24,0.66,30.14,2.65,39.08h-45.38l-2.98-16.23h-0.99c-10.6,12.92-27.16,19.87-46.37,19.87
		c-32.79,0-52.33-23.85-52.33-49.68c0-42.06,37.76-61.94,95.06-61.94v-1.99c0-8.94-4.64-21.2-29.48-21.2
		c-16.56,0-34.11,5.63-44.71,12.25l-9.27-32.46c11.26-6.29,33.45-14.57,62.93-14.57c53.99,0,70.88,31.8,70.88,70.22V459.12z
		 M161.59,421.69c-26.5,0-47.03,6.29-47.03,25.5c0,12.92,8.61,19.21,19.87,19.21c12.25,0,22.85-8.28,26.17-18.55
		c0.66-2.65,0.99-5.63,0.99-8.61V421.69z"/>
	<path class="st0" d="M368.6,493.9c-8.94,4.3-25.83,7.62-45.04,7.62c-52.33,0-85.78-32.13-85.78-82.8
		c0-47.36,32.46-86.11,92.74-86.11c13.25,0,27.82,2.32,38.42,6.29l-7.95,37.43c-5.96-2.65-14.9-4.97-28.15-4.97
		c-26.5,0-43.72,18.88-43.39,45.38c0,29.48,19.87,45.38,44.38,45.38c11.92,0,21.2-1.99,28.82-5.3L368.6,493.9z"/>
	<path class="st0" d="M393.11,387.91c0-20.2-0.66-37.1-1.33-51.67h42.73l1.99,21.86h0.99c6.96-10.6,21.53-25.83,49.02-25.83
		c21.2,0,37.43,10.93,44.38,27.82h0.66c6.29-8.61,13.25-15.24,21.2-19.87c8.94-4.97,18.88-7.95,30.8-7.95
		c31.13,0,54.65,21.86,54.65,70.55v95.39h-49.02v-88.1c0-23.52-7.62-37.1-23.85-37.1c-11.92,0-19.87,7.95-23.52,17.55
		c-0.99,3.64-1.66,8.61-1.66,12.92v94.73h-49.02v-91.08c0-20.2-7.29-34.11-23.52-34.11c-12.92,0-20.54,9.94-23.52,17.89
		c-1.66,3.97-1.99,8.61-1.99,12.92v94.39h-49.02V387.91z"/>
</g>
<g>
	<path class="st0" d="M901.6,333.67v67.7h77.22v-67.7h20.85v161.79h-20.85v-75.85H901.6v75.85h-20.61V333.67H901.6z"/>
	<path class="st0" d="M1095.83,495.46l-1.66-14.64h-0.71c-6.4,9.12-18.71,17.28-35.06,17.28c-23.21,0-35.06-16.56-35.06-33.37
		c0-28.08,24.64-43.45,68.93-43.21v-2.4c0-9.6-2.61-26.89-26.06-26.89c-10.66,0-21.79,3.36-29.85,8.64l-4.74-13.92
		c9.48-6.24,23.22-10.32,37.67-10.32c35.06,0,43.59,24.24,43.59,47.53v43.45c0,10.08,0.47,19.92,1.9,27.85H1095.83z M1092.75,436.17
		c-22.74-0.48-48.56,3.6-48.56,26.17c0,13.68,9,20.17,19.66,20.17c14.92,0,24.4-9.6,27.72-19.45c0.71-2.16,1.18-4.56,1.18-6.72
		V436.17z"/>
	<path class="st0" d="M1225.87,491.14c-5.45,2.88-17.53,6.72-32.93,6.72c-34.58,0-57.09-23.77-57.09-59.3
		c0-35.76,24.16-61.69,61.59-61.69c12.32,0,23.21,3.12,28.9,6l-4.74,16.33c-4.97-2.88-12.79-5.52-24.16-5.52
		c-26.29,0-40.51,19.68-40.51,43.93c0,26.89,17.06,43.45,39.8,43.45c11.84,0,19.66-3.12,25.58-5.76L1225.87,491.14z"/>
	<path class="st0" d="M1258.09,441.21c0.47,28.57,18.48,40.33,39.32,40.33c14.92,0,23.93-2.64,31.74-6l3.55,15.12
		c-7.34,3.36-19.9,7.2-38.14,7.2c-35.3,0-56.38-23.53-56.38-58.58c0-35.04,20.37-62.65,53.77-62.65c37.43,0,47.38,33.37,47.38,54.73
		c0,4.32-0.48,7.68-0.71,9.84H1258.09z M1319.2,426.08c0.24-13.44-5.45-34.33-28.9-34.33c-21.08,0-30.32,19.68-31.98,34.33H1319.2z"
		/>
	<path class="st0" d="M1387.89,345.91v33.37h29.85v16.08h-29.85v62.65c0,14.4,4.03,22.57,15.63,22.57c5.45,0,9.47-0.72,12.08-1.44
		l0.95,15.84c-4.03,1.68-10.42,2.88-18.48,2.88c-9.71,0-17.53-3.12-22.5-8.88c-5.92-6.24-8.05-16.56-8.05-30.25v-63.37h-17.77
		v-16.08h17.77v-27.85L1387.89,345.91z"/>
	<path class="st0" d="M1463.93,345.91v33.37h29.85v16.08h-29.85v62.65c0,14.4,4.02,22.57,15.63,22.57c5.45,0,9.47-0.72,12.08-1.44
		l0.95,15.84c-4.03,1.68-10.42,2.88-18.48,2.88c-9.71,0-17.53-3.12-22.5-8.88c-5.92-6.24-8.06-16.56-8.06-30.25v-63.37h-17.77
		v-16.08h17.77v-27.85L1463.93,345.91z"/>
	<path class="st0" d="M1525.04,441.21c0.48,28.57,18.48,40.33,39.32,40.33c14.92,0,23.92-2.64,31.74-6l3.56,15.12
		c-7.34,3.36-19.9,7.2-38.14,7.2c-35.3,0-56.38-23.53-56.38-58.58c0-35.04,20.37-62.65,53.77-62.65c37.43,0,47.38,33.37,47.38,54.73
		c0,4.32-0.48,7.68-0.71,9.84H1525.04z M1586.16,426.08c0.24-13.44-5.45-34.33-28.9-34.33c-21.08,0-30.32,19.68-31.98,34.33H1586.16
		z"/>
	<path class="st0" d="M1629.73,417.2c0-14.88-0.48-26.88-0.95-37.93h18.71l0.95,19.93h0.48c8.53-14.16,22.03-22.57,40.74-22.57
		c27.72,0,48.56,23.76,48.56,59.05c0,41.77-25.11,62.41-52.11,62.41c-15.16,0-28.43-6.72-35.3-18.24h-0.48v63.13h-20.61V417.2z
		 M1650.34,448.17c0,3.12,0.48,6,0.95,8.64c3.79,14.64,16.35,24.73,31.27,24.73c22.03,0,34.82-18.24,34.82-44.89
		c0-23.29-12.08-43.21-34.11-43.21c-14.21,0-27.48,10.32-31.5,26.17c-0.71,2.64-1.42,5.76-1.42,8.64V448.17z"/>
	<path class="st0" d="M1773.75,441.21c0.48,28.57,18.48,40.33,39.32,40.33c14.92,0,23.93-2.64,31.74-6l3.55,15.12
		c-7.34,3.36-19.9,7.2-38.14,7.2c-35.3,0-56.38-23.53-56.38-58.58c0-35.04,20.37-62.65,53.77-62.65c37.43,0,47.38,33.37,47.38,54.73
		c0,4.32-0.47,7.68-0.71,9.84H1773.75z M1834.86,426.08c0.24-13.44-5.45-34.33-28.9-34.33c-21.08,0-30.32,19.68-31.98,34.33H1834.86
		z"/>
</g>
</svg>
